<svg class="w-5 h-5 text-gray-500 transition duration-75 dark:text-gray-400 group-hover:text-gray-900 dark:group-hover:text-white"
    aria-hidden="true" xmlns="http://www.w3.org/2000/svg" width="24" height="24" fill="currentColor"
    viewBox="0 0 22 21">
    <path d="M14 19V5h4a1 1 0 0 1 1 1v11h1a1 1 0 0 1 0 2h-6Z" />
    <path fill-rule="evenodd"
        d="M12 4.571a1 1 0 0 0-1.275-.961l-5 1.428A1 1 0 0 0 5 6v11H4a1 1 0 0 0 0 2h1.86l4.865 1.39A1 1 0 0 0 12 19.43V4.57ZM10 11a1 1 0 0 1 1 1v.5a1 1 0 0 1-2 0V12a1 1 0 0 1 1-1Z"
        clip-rule="evenodd" />
</svg>